<svg xmlns="http://www.w3.org/2000/svg" version="1.1" xmlns:xlink="http://www.w3.org/1999/xlink" xmlns:svgjs="http://svgjs.dev/svgjs" viewBox="0 0 9.731000802653984 3.4315257049977337"><g transform="matrix(0.7577783536912203,0,0,0.7577783536912203,3.6663818553765037,1.2940591986697028)"><g transform="matrix(1,0,0,1,0,0)" clip-path="url(#SvgjsClipPath150784)"><g clip-path="url(#SvgjsClipPath150782ab8b7813-09d0-45a7-bf93-ac73aed17950)"><path d=" M -2.7277780338047024 0.8676337891986254 C -2.698249145370296 0.9772525489561206 -2.5855262074726206 1.0422512300295912 -2.475861085662803 1.012894990464869 C -2.3662285372342655 0.9833565679380478 -2.3011315599965467 0.8707168545154724 -2.330272719528852 0.7609780423229766 C -2.359801607963262 0.6513592825654746 -2.4725245458609404 0.5863606014920109 -2.5821896676707543 0.6157168410567262 C -2.6349435088787567 0.629750686398542 -2.6799439024650558 0.664201237403157 -2.7072584752614715 0.7114646555003161 C -2.7345730480578836 0.758728073597482 -2.7419560896687427 0.8149185228216658 -2.7277780338047024 0.8676337891986254 Z" fill="#c84449" transform="matrix(1,0,0,1,0,0)" fill-rule="evenodd"></path></g><g clip-path="url(#SvgjsClipPath150782ab8b7813-09d0-45a7-bf93-ac73aed17950)"><path d=" M -1.9733358488498691 0.665445900949676 C -1.9587513145530184 0.7152891116092792 -1.9070203555678544 0.7443514481177969 -1.8568651559427063 0.7308788744930352 C -1.8070219452831031 0.7162943401961779 -1.777959608774582 0.6645633812110103 -1.7914321823993502 0.6144081815858622 C -1.8058702025607314 0.564609832587607 -1.8575025513234036 0.5355211853973618 -1.9075757104388091 0.5489752080425163 C -1.9575508368397814 0.5634190117625955 -1.9867830263141077 0.6151934369012007 -1.9733358488498691 0.665445900949676 Z" fill="#c84449" transform="matrix(1,0,0,1,0,0)" fill-rule="evenodd"></path></g><g clip-path="url(#SvgjsClipPath150782ab8b7813-09d0-45a7-bf93-ac73aed17950)"><path d=" M -2.3188219491587625 0.5565 C -2.31890884231458 0.596383863813355 -2.3031259134975386 0.6346639568764021 -2.274954400622909 0.662896845596078 C -2.246782887748286 0.6911297343157474 -2.208537233344977 0.7069959338046747 -2.16865327487677 0.7069958391497067 C -2.1287693164085635 0.7069959338046747 -2.0905236620052543 0.6911297343157474 -2.062352149130628 0.662896845596078 C -2.034180636255998 0.6346639568764021 -2.018397707438961 0.596383863813355 -2.018484600594778 0.5565 C -2.0184846000013046 0.5166727935607582 -2.034305896476359 0.4784768034265259 -2.0624679853878964 0.4503147136756911 C -2.090630074299437 0.42215262392485653 -2.128826063962156 0.4063313263114774 -2.168653272639084 0.4063313257180077 C -2.208480483553695 0.4063313257180077 -2.2466764734521725 0.42215262276222254 -2.27483856278336 0.45031471209341034 C -2.3030006521145476 0.47847680142459126 -2.3188219491587625 0.516672791323072 -2.3188219491587625 0.5565 Z" fill="#c84449" transform="matrix(1,0,0,1,0,0)" fill-rule="evenodd"></path></g><g clip-path="url(#SvgjsClipPath150782ab8b7813-09d0-45a7-bf93-ac73aed17950)"><path d=" M -1.256517623682461 1.7169537857913237 C -1.1468988639249658 1.6874248973569106 -1.0819001828514987 1.5747019594592353 -1.1112564224162207 1.4650368376494178 C -1.1252902677580332 1.412282996441419 -1.1597408187626448 1.3672826028551166 -1.2070042368598106 1.3399680300587045 C -1.254267654956973 1.3126534572622923 -1.310458104181157 1.3052704156514299 -1.36317337055812 1.3194484715154733 C -1.472792130315615 1.34897735994988 -1.5377908113890821 1.461700297847552 -1.5084345718243601 1.571365419657369 C -1.4788961492975423 1.680997968085907 -1.366256435874967 1.7460949453236259 -1.2565176236824642 1.7169537857913237 Z" fill="#382d5e" transform="matrix(1,0,0,1,0,0)" fill-rule="evenodd"></path></g><g clip-path="url(#SvgjsClipPath150782ab8b7813-09d0-45a7-bf93-ac73aed17950)"><path d=" M -1.4587055119314136 0.9628387657042048 C -1.4087893855513274 0.948549676163045 -1.37963011069945 0.896791963300958 -1.393272538388061 0.846695237664753 C -1.4068442026562775 0.7961179379229164 -1.4588266836488506 0.7660998855187575 -1.5094160664275131 0.7796264397828219 C -1.5600074434432842 0.7932075332627575 -1.5901237860882405 0.8451070557819715 -1.5768120291771586 0.8957699678222806 C -1.5703225009827806 0.9205013630703485 -1.5541257616671573 0.9415666449155276 -1.5318919253485894 0.9541925076449072 C -1.5096580890300217 0.9668183703742934 -1.4832694309786763 0.9699359319092489 -1.458705511931417 0.9628387657042115 Z" fill="#382d5e" transform="matrix(1,0,0,1,0,0)" fill-rule="evenodd"></path></g><g clip-path="url(#SvgjsClipPath150782ab8b7813-09d0-45a7-bf93-ac73aed17950)"><path d=" M -1.5673242480133787 1.3079977011453774 C -1.4844630265707148 1.3078177630036005 -1.4173355118731696 1.240690248306052 -1.4171555737313863 1.1578290268633915 C -1.4171553776287096 1.07484006836704 -1.48433548560203 1.0075135984965873 -1.5673242480065375 1.0073331877136915 C -1.6504408048887413 1.0073331877136849 -1.7178200871630789 1.074712469988019 -1.7178200871630789 1.1578290268633915 C -1.7176396763839619 1.2408177892678989 -1.650313206516568 1.3079978972442816 -1.567324248013382 1.3079977011453774 Z" fill="#382d5e" transform="matrix(1,0,0,1,0,0)" fill-rule="evenodd"></path></g><g clip-path="url(#SvgjsClipPath150782ab8b7813-09d0-45a7-bf93-ac73aed17950)"><path d=" M -2.1679989451413384 1.5968842793392728 C -2.069682197623888 1.6534497311818694 -1.9441323046483436 1.6197941654658137 -1.8872914886403618 1.521636359764416 C -1.8599314994367036 1.4744067294277667 -1.85248896120875 1.418231418277149 -1.8666062097973701 1.3655065637657526 C -1.880723458385987 1.3127817092543628 -1.9152401067702676 1.2678411046471865 -1.962539408215212 1.2406017383957253 C -2.009739628171295 1.2133456854733748 -2.065835738044279 1.2059613188353715 -2.1184816264284954 1.220073853017619 C -2.1711275148127123 1.2341863871998666 -2.2160085264816862 1.2686392129924782 -2.2432468647161916 1.315849657970582 C -2.2706068539198467 1.3630792883072382 -2.2780493921478002 1.4192545994578487 -2.26393214355918 1.4719794539692455 C -2.249814894970563 1.5247043084806418 -2.215298246586279 1.5696449130878185 -2.1679989451413384 1.596884279339276 Z" fill="#c84449" transform="matrix(1,0,0,1,0,0)" fill-rule="evenodd"></path></g><g clip-path="url(#SvgjsClipPath150782ab8b7813-09d0-45a7-bf93-ac73aed17950)"><path d=" M -1.7773640930875327 0.9203073329010245 C -1.7554665380322119 0.9332961750178677 -1.7292674665039174 0.9369392093024425 -1.7046569175322586 0.9304174138249564 C -1.6800463685605964 0.9238956183474636 -1.6590896224937455 0.907756292400173 -1.6464981460008277 0.8856278569230553 C -1.6335093038839879 0.8637303018677311 -1.62986626959941 0.8375312303394367 -1.6363880650768994 0.8129206813677778 C -1.6429098605543886 0.7883101323961124 -1.6590491865016825 0.7673533863292648 -1.6811776219788035 0.7547619098363503 C -1.7030307649735628 0.7415888723309167 -1.7292921790303313 0.7378421362134655 -1.7539572607364833 0.744378382865595 C -1.778622342442639 0.7509146295177311 -1.7995818940438282 0.7671749215345387 -1.8120435690655052 0.7894413858143194 C -1.8251239761235665 0.8113169692905595 -1.8288185103918835 0.8375469841332184 -1.822289548921726 0.8621845745866474 C -1.8157605874515648 0.8868221650400898 -1.7995611962338869 0.9077802896289597 -1.7773640930875327 0.9203073329010245 Z" fill="#382d5e" transform="matrix(1,0,0,1,0,0)" fill-rule="evenodd"></path></g><g clip-path="url(#SvgjsClipPath150782ab8b7813-09d0-45a7-bf93-ac73aed17950)"><path d=" M -2.098639993185383 1.0878157451720047 C -2.070522277005701 1.1160458140661886 -2.0323189737454586 1.131914780579936 -1.9924749936112995 1.131914780579936 C -1.952631013477137 1.131914780579936 -1.9144277102168945 1.1160458140661886 -1.8863099940372121 1.0878157451720047 C -1.8276925248124691 1.0291758742683645 -1.8276925248124691 0.9341256169274703 -1.8863099940372121 0.8754857460238301 C -1.9144277102168945 0.8472556771296462 -1.952631013477137 0.8313867106158987 -1.9924749936112995 0.8313867106158987 C -2.0323189737454586 0.8313867106158987 -2.070522277005701 0.8472556771296462 -2.098639993185383 0.8754857460238301 C -2.1268700620795675 0.9036034622035158 -2.142739028593318 0.9418067654637583 -2.142739028593318 0.9816507455979206 C -2.142739028593318 1.0214947257320766 -2.1268700620795675 1.059698028992319 -2.098639993185383 1.0878157451720047 Z" fill="#c84449" transform="matrix(1,0,0,1,0,0)" fill-rule="evenodd"></path></g><g clip-path="url(#SvgjsClipPath150782ab8b7813-09d0-45a7-bf93-ac73aed17950)"><path d=" M -0.5272671335418169 1.1571746971279562 C -0.4706724335066399 1.0587595514304733 -0.5043158615633829 0.933108661427247 -0.6025150531166736 0.8761400757592654 C -0.700930198814163 0.8195453757240885 -0.8265810888173861 0.8531888037808313 -0.8835496744853644 0.9513879953341222 C -0.940144374520538 1.0498031410316115 -0.9065009464637954 1.1754540310348311 -0.8083017549105012 1.232422616702813 C -0.761072124573855 1.2597826059064712 -0.7048968134232374 1.2672251441344216 -0.6521719589118411 1.2531078955458013 C -0.5994471044004479 1.2389906469571879 -0.5545064997932716 1.204473998572904 -0.5272671335418102 1.1571746971279628 Z" fill="#382d5e" transform="matrix(1,0,0,1,0,0)" fill-rule="evenodd"></path></g><g clip-path="url(#SvgjsClipPath150782ab8b7813-09d0-45a7-bf93-ac73aed17950)"><path d=" M -1.2031897502446298 0.7665398450741541 C -1.19020090812779 0.7446422900188299 -1.1865578738432119 0.7184432184905354 -1.1930796693207013 0.6938326695188766 C -1.1996014647981907 0.6692221205472177 -1.2157407907454847 0.6482653744803635 -1.2378692262226056 0.635673897987449 C -1.2597667812779232 0.6226850558706059 -1.285965852806221 0.619042021586031 -1.3105764017778798 0.6255638170635172 C -1.335186950749542 0.6320856125410099 -1.356143696816393 0.6482249384883005 -1.3687351733093074 0.6703533739654248 C -1.3816334946459174 0.6922724440318331 -1.3852257146939346 0.7184410176594982 -1.3787109689357342 0.7430249639168556 C -1.3721962231775335 0.7676089101742132 -1.3561161461677453 0.7885643250815577 -1.3340556973313349 0.8012193210521232 C -1.3121366272649233 0.8141176423887366 -1.2859680536372615 0.8177098624367538 -1.261384107379904 0.8111951166785534 C -1.2368001611225399 0.8046803709203527 -1.2158447462151987 0.7886002939105645 -1.2031897502446298 0.7665398450741541 Z" fill="#e37f7c" transform="matrix(1,0,0,1,0,0)" fill-rule="evenodd"></path></g><g clip-path="url(#SvgjsClipPath150782ab8b7813-09d0-45a7-bf93-ac73aed17950)"><path d=" M -1.0360085028413673 1.0878157451720047 C -0.9773910336166243 1.0291758742683645 -0.9773910336166243 0.9341256169274703 -1.0360085028413673 0.8754857460238301 C -1.0641821611791686 0.847235894209108 -1.102439601824828 0.8313588719141778 -1.1423370848493117 0.8313588719141778 C -1.1822345678737958 0.8313588719141778 -1.220492008519455 0.847235894209108 -1.2486656668572595 0.8754857460238301 C -1.27689573575144 0.9036034622035158 -1.2927647022651911 0.9418067654637583 -1.2927647022651911 0.9816507455979206 C -1.2927647022651911 1.0214947257320766 -1.27689573575144 1.059698028992319 -1.2486656668572595 1.0878157451720047 C -1.220492008519455 1.1160655969867332 -1.1822345678737958 1.131942619281657 -1.1423370848493117 1.131942619281657 C -1.102439601824828 1.131942619281657 -1.0641821611791686 1.1160655969867332 -1.0360085028413673 1.0878157451720047 Z" fill="#382d5e" transform="matrix(1,0,0,1,0,0)" fill-rule="evenodd"></path></g><g clip-path="url(#SvgjsClipPath150782ab8b7813-09d0-45a7-bf93-ac73aed17950)"><path d=" M -0.9669767157531302 -0.4835571144715651 C -1.0653665078673469 -0.5403449486674752 -1.191161218836208 -0.5066630120867579 -1.2480113371218209 -0.40830919489670836 C -1.3047443386246778 -0.3098337407869258 -1.2709088387601644 -0.18401255297907626 -1.172436252679253 -0.1272745735280243 C -1.125196357844761 -0.10004565462536519 -1.0690703960523849 -0.09271107761107245 -1.0164197889369055 -0.10688624106523814 C -0.9637691818214229 -0.12106140451941033 -0.918912365255055 -0.15558365263028884 -0.8917287961782767 -0.20284965797058874 C -0.8643840096019864 -0.25002941685043106 -0.856950121395827 -0.3061553822767258 -0.871069574909261 -0.35882708277467223 C -0.8851890284226949 -0.41149878327261213 -0.9196996691638069 -0.456380877302777 -0.9669767157531268 -0.4835571144715651 Z" fill="#e37f7c" transform="matrix(1,0,0,1,0,0)" fill-rule="evenodd"></path></g><g clip-path="url(#SvgjsClipPath150782ab8b7813-09d0-45a7-bf93-ac73aed17950)"><path d=" M -1.3576115678069356 0.19269266709896882 C -1.3795705149687334 0.17982125282279848 -1.4057691857606132 0.1762788068419906 -1.4303579102643706 0.18285629064674713 C -1.4549466347681246 0.1894337744514969 -1.475877671804485 0.20558341727635765 -1.4884775148936407 0.22769930794465898 C -1.5014663570104805 0.24959686299998318 -1.5051093912950586 0.27579593452827766 -1.4985875958175692 0.3004064834999366 C -1.4920658003400797 0.3250170324715954 -1.4759264743927858 0.3459737785384496 -1.4537980389156715 0.35856525503136394 C -1.4318789688492566 0.37146357636797744 -1.4057103952215917 0.37505579641598796 -1.381126448964234 0.36854105065778753 C -1.3565425027068732 0.36202630489959364 -1.3355870877995286 0.3459462278897988 -1.3229320918289633 0.3238857790533882 C -1.309928656467755 0.3019381063017411 -1.3062773630247155 0.27568996414123637 -1.3127968775977417 0.25102651750176286 C -1.3193163921707742 0.2263630708622828 -1.335461249179189 0.20534782632734716 -1.3576115678069356 0.19269266709896882 Z" fill="#e37f7c" transform="matrix(1,0,0,1,0,0)" fill-rule="evenodd"></path></g><g clip-path="url(#SvgjsClipPath150782ab8b7813-09d0-45a7-bf93-ac73aed17950)"><path d=" M -1.0360085028413673 0.02551141969570303 C -1.0641821611791686 -0.0027384321190190297 -1.102439601824828 -0.018615454413949406 -1.1423370848493117 -0.018615454413949406 C -1.1822345678737958 -0.018615454413949406 -1.220492008519455 -0.0027384321190190297 -1.2486656668572595 0.02551141969570303 C -1.27689573575144 0.053629135875388645 -1.2927647022651911 0.0918324391356311 -1.2927647022651911 0.13167641926979357 C -1.2927647022651911 0.17152039940394948 -1.27689573575144 0.20972370266419182 -1.2486656668572595 0.23784141884387755 C -1.18983942812116 0.2963168879997974 -1.0948347415774637 0.2963168879997974 -1.0360085028413673 0.23784141884387755 C -0.9773910336166243 0.17920154794023735 -0.9773910336166243 0.08415129059934323 -1.0360085028413673 0.02551141969570303 Z" fill="#e37f7c" transform="matrix(1,0,0,1,0,0)" fill-rule="evenodd"></path></g><g clip-path="url(#SvgjsClipPath150782ab8b7813-09d0-45a7-bf93-ac73aed17950)"><path d=" M -0.4071976270897659 0.24569337566908223 C -0.43672651552417596 0.13607461591158043 -0.5494494534218544 0.07107593483811658 -0.6591145752316683 0.10043217440283869 C -0.711843718373665 0.1143925627619663 -0.756841556592968 0.1487788139552092 -0.7841613490929864 0.1959898711069228 C -0.8114811415930081 0.24320092825864292 -0.8188729935961292 0.2993487709553988 -0.8047029413656197 0.3520219576770234 C -0.7753190984207927 0.4617731389152562 -0.6625504203001187 0.5269446476992872 -0.5527859932237207 0.49761032381098147 C -0.44303481198548766 0.46822648086615115 -0.37786330320146 0.3554578027454739 -0.4071976270897659 0.24569337566907568 Z" fill="#e37f7c" transform="matrix(1,0,0,1,0,0)" fill-rule="evenodd"></path></g><g clip-path="url(#SvgjsClipPath150782ab8b7813-09d0-45a7-bf93-ac73aed17950)"><path d=" M -1.1619669769123169 0.4478812639180316 C -1.1761050819867729 0.397846153069757 -1.2279902445723987 0.368615075556727 -1.2781105049517656 0.3824482903746792 C -1.3280266313318518 0.39673737991583913 -1.3571859061837326 0.4484950927779261 -1.3435434784951181 0.49859181841413114 C -1.329405373420662 0.548626929262406 -1.2775202108350396 0.5778580067754291 -1.2273999504556694 0.5640247919574837 C -1.1773648396073912 0.5498866868830277 -1.1481337620943615 0.4980015242974052 -1.1619669769123135 0.4478812639180383 Z" fill="#e37f7c" transform="matrix(1,0,0,1,0,0)" fill-rule="evenodd"></path></g><g clip-path="url(#SvgjsClipPath150782ab8b7813-09d0-45a7-bf93-ac73aed17950)"><path d=" M -0.8161537117357092 0.5565 C -0.8163336498774858 0.47363877855734615 -0.8834611645750343 0.40651126385979097 -0.9663223860176948 0.4063313257180077 C -1.0493113445208941 0.4063311296191032 -1.1166378143882845 0.4735112375954793 -1.1168182251674081 0.5565 C -1.1168182239288744 0.6396165591179293 -1.0494389406505107 0.706995840388237 -0.9663223837751416 0.7069958391497 C -0.8833336236131808 0.7068154283705799 -0.8161535156368014 0.6394889585031927 -0.8161537117357092 0.5565 Z" fill="#e37f7c" transform="matrix(1,0,0,1,0,0)" fill-rule="evenodd"></path></g><g clip-path="url(#SvgjsClipPath150782ab8b7813-09d0-45a7-bf93-ac73aed17950)"><path d=" M -1.8784580372120074 -0.6036266209236161 C -1.9880767969695092 -0.5740977324892095 -2.053075478042973 -0.46137479459153097 -2.0237192384782543 -0.35170967278171694 C -2.009614669277738 -0.29901623436613106 -1.975134789150836 -0.25409452372013325 -1.9278795478026947 -0.2268460468908179 C -1.8806243064545503 -0.19959757006149587 -1.824472986578178 -0.1922592121341743 -1.7718022903363453 -0.20644847151548001 C -1.7191335478002152 -0.22047970280985496 -1.6742144524486058 -0.2548953305907212 -1.6469607876631207 -0.30209818694215673 C -1.6197071228776356 -0.3493010432935922 -1.6123599316911308 -0.4054096820618527 -1.626541089070105 -0.45803825478966476 C -1.6559249320149385 -0.5677894360278909 -1.7686936101356125 -0.632960944811922 -1.878458037212014 -0.6036266209236161 Z" fill="#e37f7c" transform="matrix(1,0,0,1,0,0)" fill-rule="evenodd"></path></g><g clip-path="url(#SvgjsClipPath150782ab8b7813-09d0-45a7-bf93-ac73aed17950)"><path d=" M -1.676270148963058 0.15081556403122376 C -1.7261133596226546 0.16540009832807456 -1.7551756961311755 0.217131057313242 -1.7417031225064072 0.2672862569383836 C -1.727265102345036 0.31708460593664545 -1.675632753582364 0.3461732531268904 -1.6255595944669585 0.332719230481736 C -1.574968217451181 0.31913813700180704 -1.5448518748062248 0.267238614482593 -1.5581636317173067 0.21657570244229063 C -1.565092531504746 0.19218526887771092 -1.5814334298002093 0.17154986303277675 -1.6035865625497074 0.15921529327474426 C -1.625739695299199 0.14688072351671833 -1.6518876137968537 0.1438589211195045 -1.6762701489630614 0.15081556403122376 Z" fill="#e37f7c" transform="matrix(1,0,0,1,0,0)" fill-rule="evenodd"></path></g><g clip-path="url(#SvgjsClipPath150782ab8b7813-09d0-45a7-bf93-ac73aed17950)"><path d=" M -1.5673242480133787 -0.19467053627766967 C -1.6072081118267303 -0.19475742943349328 -1.6454882048897808 -0.1789745006164491 -1.6737210936094533 -0.15080298774182277 C -1.7019539823291194 -0.12263147486719639 -1.71782018181805 -0.08438582046388732 -1.7178200871630822 -0.044501861995683956 C -1.7178201818163912 -0.004617903521236477 -1.7019539823258747 0.033627750881415674 -1.6737210936050342 0.06179926375486755 C -1.6454882048841903 0.08997077662832609 -1.6072081118204864 0.10575370544377105 -1.567324248007138 0.10566681228629515 C -1.527497039336454 0.10566681228630848 -1.4893010494379733 0.0898455152420935 -1.461138960106789 0.06168342591090581 C -1.4329768707756012 0.03352133657972478 -1.4171555737313863 -0.004674653318755939 -1.4171555737313863 -0.044501861995683956 C -1.4171555731379133 -0.08432906843491894 -1.4329768696129674 -0.12252505856915136 -1.4611389585245047 -0.15068714831998603 C -1.4893010474360453 -0.17884923807082076 -1.5274970370987613 -0.19467053568419984 -1.5673242457756924 -0.19467053627766967 Z" fill="#e37f7c" transform="matrix(1,0,0,1,0,0)" fill-rule="evenodd"></path></g><g clip-path="url(#SvgjsClipPath150782ab8b7813-09d0-45a7-bf93-ac73aed17950)"><path d=" M -2.6077085273526546 -0.04384753226024851 C -2.635053313928942 0.00333222661959387 -2.642487202135101 0.059458192045888536 -2.6283677486216708 0.11212989254383499 C -2.6142482951082333 0.16480159304177489 -2.5797376543671247 0.20968368707193974 -2.532460607777805 0.23685992424072777 C -2.485230977441152 0.2642199134443862 -2.4290556662905347 0.2716624516723364 -2.376330811779138 0.2575452030837162 C -2.3236059572677448 0.24342795449510268 -2.2786653526605685 0.20891130611081887 -2.2514259864091075 0.16161200466587777 C -2.1948605345665078 0.06329525714842443 -2.228516100282563 -0.06225463582712332 -2.3266739059839576 -0.11909545183510523 C -2.3739035363206105 -0.14645544103875696 -2.430078847471228 -0.15389797926671378 -2.482803701982624 -0.1397807306780936 C -2.5355285564940173 -0.12566348208947348 -2.5804691611011936 -0.09114683370518972 -2.6077085273526546 -0.04384753226024851 Z" fill="#e37f7c" transform="matrix(1,0,0,1,0,0)" fill-rule="evenodd"></path></g><g clip-path="url(#SvgjsClipPath150782ab8b7813-09d0-45a7-bf93-ac73aed17950)"><path d=" M -1.9311315809144065 0.34646015492583926 C -1.9440299022510166 0.3683792249922542 -1.9476221222990304 0.3945477986199126 -1.9411073765408333 0.41913174487727667 C -1.9345926307826327 0.44371569113463427 -1.9185125537728447 0.4646711060419788 -1.896452104936434 0.47732610201254433 C -1.8745545498811134 0.4903149441293875 -1.8483554783528153 0.4939579784139623 -1.8237449293811598 0.48743618293647617 C -1.7991343804094977 0.4809143874589834 -1.7781776343426434 0.4647750615116928 -1.7655861578497292 0.44264662603457516 C -1.7526878365131189 0.42072755596816025 -1.749095616465105 0.3945589823405018 -1.7556103622233024 0.36997503608313764 C -1.7621251079815028 0.34539108982578004 -1.778205184991291 0.3244356749184356 -1.8002656338277048 0.3117806789478701 C -1.8221631888830223 0.29879183683102706 -1.8483622604113201 0.29514880254645226 -1.8729728093829792 0.30167059802393836 C -1.897583358354641 0.308192393501431 -1.918540104421492 0.32433171944872163 -1.9311315809144065 0.34646015492583926 Z" fill="#c84449" transform="matrix(1,0,0,1,0,0)" fill-rule="evenodd"></path></g><g clip-path="url(#SvgjsClipPath150782ab8b7813-09d0-45a7-bf93-ac73aed17950)"><path d=" M -2.098639993185383 0.02551141969570303 C -2.1268700620795675 0.053629135875388645 -2.142739028593318 0.0918324391356311 -2.142739028593318 0.13167641926979357 C -2.142739028593318 0.17152039940394948 -2.1268700620795675 0.20972370266419182 -2.098639993185383 0.23784141884387755 C -2.040000122281743 0.29645888806862053 -1.9449498649408523 0.29645888806862053 -1.8863099940372121 0.23784141884387755 C -1.8276925248124691 0.17920154794023735 -1.8276925248124691 0.08415129059934323 -1.8863099940372121 0.02551141969570303 C -1.9144277102168945 -0.0027186491984808603 -1.952631013477137 -0.018587615712228445 -1.9924749936112995 -0.018587615712228445 C -2.0323189737454586 -0.018587615712228445 -2.070522277005701 -0.0027186491984808603 -2.098639993185383 0.02551141969570303 Z" fill="#e37f7c" transform="matrix(1,0,0,1,0,0)" fill-rule="evenodd"></path></g></g><g><path d=" M 0.135 1.1265 L 0.147 0.9884999999999999 Q 0.2085 0.9824999999999999 0.24 0.97125 Q 0.2715 0.96 0.28350000000000003 0.93375 Q 0.2955 0.9075 0.2955 0.861 L 0.2955 0.32399999999999995 Q 0.2655 0.32399999999999995 0.24675 0.3315 Q 0.228 0.33899999999999997 0.216 0.36075 Q 0.20400000000000001 0.38249999999999995 0.19725 0.42225 Q 0.1905 0.46199999999999997 0.186 0.528 L 0 0.5399999999999999 Q 0.003 0.48 0.00525 0.40874999999999995 Q 0.0075 0.3375 0.00975 0.26849999999999996 Q 0.012 0.1995 0.012 0.14700000000000002 L 0.0315 0.126 L 0.21 0.14249999999999996 L 0.681 0.14249999999999996 L 0.8625 0.126 L 0.882 0.14700000000000002 Q 0.8835000000000001 0.21749999999999992 0.88425 0.29025 Q 0.885 0.363 0.8865000000000001 0.42525 Q 0.888 0.48749999999999993 0.8895000000000001 0.528 L 0.7035 0.5399999999999999 Q 0.6975 0.4665 0.6915 0.42374999999999996 Q 0.6855 0.381 0.675 0.35924999999999996 Q 0.6645 0.3375 0.64725 0.33075 Q 0.63 0.32399999999999995 0.6 0.32399999999999995 Q 0.5985 0.38549999999999995 0.597 0.45299999999999996 Q 0.5955 0.5205 0.59475 0.59175 Q 0.594 0.663 0.59325 0.73425 Q 0.5925 0.8055 0.5925 0.873 Q 0.5925 0.9299999999999999 0.6105 0.9532499999999999 Q 0.6285000000000001 0.9764999999999999 0.6705 0.9764999999999999 Q 0.6975 0.9764999999999999 0.747 0.972 L 0.7545000000000001 0.981 L 0.741 1.1219999999999999 Q 0.6915 1.119 0.63225 1.1175 Q 0.5730000000000001 1.1159999999999999 0.51975 1.1145 Q 0.4665 1.113 0.4365 1.113 Q 0.40800000000000003 1.113 0.3585 1.1145 Q 0.309 1.1159999999999999 0.2505 1.119 Q 0.192 1.1219999999999999 0.135 1.1265 M 1.232982421875 1.131 Q 1.115982421875 1.131 1.033482421875 1.089 Q 0.950982421875 1.047 0.908232421875 0.9652499999999999 Q 0.865482421875 0.8835 0.865482421875 0.768 Q 0.865482421875 0.681 0.892482421875 0.61125 Q 0.919482421875 0.5415 0.969732421875 0.49124999999999996 Q 1.019982421875 0.44099999999999995 1.090482421875 0.4139999999999999 Q 1.160982421875 0.387 1.247982421875 0.387 Q 1.532982421875 0.387 1.532982421875 0.687 Q 1.532982421875 0.714 1.5284824218750002 0.7417499999999999 Q 1.523982421875 0.7695 1.5209824218749999 0.786 L 1.5044824218750001 0.8009999999999999 L 1.148982421875 0.8009999999999999 Q 1.154982421875 0.87 1.196232421875 0.9045 Q 1.237482421875 0.939 1.308732421875 0.9359999999999999 Q 1.3799824218749999 0.933 1.474482421875 0.891 L 1.487982421875 0.8985 L 1.5209824218749999 1.0095 Q 1.487982421875 1.035 1.4384824218749999 1.0635 Q 1.388982421875 1.092 1.334982421875 1.1115 Q 1.280982421875 1.131 1.232982421875 1.131 M 1.141482421875 0.687 L 1.265982421875 0.6779999999999999 Q 1.277982421875 0.6765 1.280982421875 0.6712499999999999 Q 1.283982421875 0.6659999999999999 1.283982421875 0.651 Q 1.283982421875 0.6014999999999999 1.268982421875 0.5775 Q 1.253982421875 0.5535 1.223982421875 0.5535 Q 1.178982421875 0.5535 1.160232421875 0.5842499999999999 Q 1.141482421875 0.615 1.141482421875 0.687 M 1.93348828125 1.131 Q 1.8239882812500001 1.131 1.74523828125 1.0875 Q 1.66648828125 1.044 1.62523828125 0.963 Q 1.58398828125 0.882 1.58398828125 0.768 Q 1.58398828125 0.6525 1.63198828125 0.567 Q 1.67998828125 0.48149999999999993 1.76698828125 0.43425 Q 1.85398828125 0.387 1.97098828125 0.387 Q 2.03698828125 0.387 2.08273828125 0.39525 Q 2.12848828125 0.40349999999999997 2.15323828125 0.41174999999999995 Q 2.17798828125 0.41999999999999993 2.17798828125 0.41999999999999993 L 2.18548828125 0.4365 Q 2.18548828125 0.4365 2.1787382812500002 0.474 Q 2.17198828125 0.5115 2.16448828125 0.57075 Q 2.15698828125 0.63 2.15098828125 0.6975 L 2.01298828125 0.705 L 2.01298828125 0.651 Q 2.01298828125 0.603 1.99948828125 0.5835 Q 1.98598828125 0.564 1.9529882812500001 0.564 Q 1.91098828125 0.564 1.88923828125 0.5985 Q 1.86748828125 0.633 1.86748828125 0.7035 Q 1.86748828125 0.8175 1.89673828125 0.8714999999999999 Q 1.92598828125 0.9255 1.98898828125 0.9255 Q 2.02948828125 0.9255 2.06323828125 0.91575 Q 2.09698828125 0.9059999999999999 2.11648828125 0.89625 Q 2.13598828125 0.8865 2.13598828125 0.8865 L 2.15098828125 0.894 L 2.18398828125 1.0065 Q 2.18398828125 1.0065 2.16073828125 1.02525 Q 2.13748828125 1.044 2.09998828125 1.06875 Q 2.06248828125 1.0935 2.01823828125 1.11225 Q 1.97398828125 1.131 1.93348828125 1.131 M 2.228977294921875 0.9915 Q 2.266477294921875 0.987 2.279227294921875 0.9704999999999999 Q 2.291977294921875 0.954 2.291977294921875 0.9135 L 2.291977294921875 0.26549999999999996 Q 2.291977294921875 0.21150000000000002 2.277727294921875 0.19424999999999992 Q 2.263477294921875 0.17699999999999994 2.219977294921875 0.17699999999999994 L 2.182477294921875 0.17699999999999994 L 2.174977294921875 0.16649999999999998 L 2.186977294921875 0.05400000000000005 Q 2.242477294921875 0.046499999999999986 2.314477294921875 0.03675000000000006 Q 2.386477294921875 0.026999999999999913 2.459227294921875 0.017249999999999988 Q 2.531977294921875 0.007500000000000062 2.5889772949218752 0 L 2.602477294921875 0.038999999999999924 Q 2.5889772949218752 0.050999999999999934 2.579977294921875 0.10949999999999993 Q 2.570977294921875 0.16799999999999993 2.564227294921875 0.273 Q 2.557477294921875 0.378 2.552977294921875 0.5295 Q 2.587477294921875 0.49349999999999994 2.615227294921875 0.4665 Q 2.642977294921875 0.4395 2.663977294921875 0.42225 Q 2.684977294921875 0.405 2.699977294921875 0.396 Q 2.714977294921875 0.387 2.723977294921875 0.387 Q 2.845477294921875 0.387 2.909227294921875 0.4365 Q 2.972977294921875 0.486 2.972977294921875 0.582 Q 2.972977294921875 0.606 2.967727294921875 0.6547499999999999 Q 2.962477294921875 0.7035 2.956477294921875 0.7597499999999999 Q 2.950477294921875 0.8160000000000001 2.945227294921875 0.86325 Q 2.939977294921875 0.9105 2.939977294921875 0.933 Q 2.939977294921875 0.9645 2.948977294921875 0.9764999999999999 Q 2.957977294921875 0.9884999999999999 2.980477294921875 0.9884999999999999 Q 2.9879772949218752 0.9884999999999999 2.999977294921875 0.98775 Q 3.0119772949218753 0.987 3.017977294921875 0.987 L 3.020977294921875 0.993 L 3.004477294921875 1.119 Q 2.957977294921875 1.1159999999999999 2.899477294921875 1.1145 Q 2.840977294921875 1.113 2.809477294921875 1.113 Q 2.789977294921875 1.113 2.757727294921875 1.11375 Q 2.725477294921875 1.1145 2.690227294921875 1.11525 Q 2.654977294921875 1.1159999999999999 2.626477294921875 1.1175 L 2.638477294921875 0.987 Q 2.665477294921875 0.984 2.677477294921875 0.9675 Q 2.689477294921875 0.951 2.690977294921875 0.9179999999999999 L 2.6939772949218748 0.7064999999999999 Q 2.695477294921875 0.6495 2.681227294921875 0.627 Q 2.666977294921875 0.6044999999999999 2.629477294921875 0.6044999999999999 Q 2.615977294921875 0.6044999999999999 2.596477294921875 0.61425 Q 2.5769772949218748 0.624 2.551477294921875 0.6435 Q 2.551477294921875 0.6719999999999999 2.550727294921875 0.7035 Q 2.549977294921875 0.735 2.549977294921875 0.7889999999999999 Q 2.549977294921875 0.843 2.549977294921875 0.939 Q 2.549977294921875 0.966 2.557477294921875 0.9764999999999999 Q 2.564977294921875 0.987 2.584477294921875 0.987 Q 2.5889772949218752 0.987 2.595727294921875 0.98625 Q 2.602477294921875 0.9855 2.605477294921875 0.9855 L 2.609977294921875 0.996 L 2.593477294921875 1.119 Q 2.549977294921875 1.1159999999999999 2.492977294921875 1.1145 Q 2.435977294921875 1.113 2.4014772949218752 1.113 Q 2.365477294921875 1.113 2.312977294921875 1.11525 Q 2.260477294921875 1.1175 2.212477294921875 1.1205 L 2.228977294921875 0.9915 M 3.34650146484375 1.131 Q 3.23550146484375 1.131 3.17700146484375 1.08225 Q 3.11850146484375 1.0335 3.11850146484375 0.942 L 3.11850146484375 0.6495 Q 3.11850146484375 0.5955 3.10425146484375 0.579 Q 3.09000146484375 0.5625 3.04200146484375 0.5625 L 3.01800146484375 0.5489999999999999 L 3.03000146484375 0.4425 Q 3.09300146484375 0.4139999999999999 3.15225146484375 0.381 Q 3.21150146484375 0.348 3.25800146484375 0.3195 Q 3.30450146484375 0.2909999999999999 3.33225146484375 0.27225 Q 3.36000146484375 0.25349999999999995 3.36000146484375 0.25349999999999995 L 3.41700146484375 0.2865 Q 3.41700146484375 0.2865 3.40950146484375 0.32624999999999993 Q 3.40200146484375 0.366 3.39450146484375 0.4365 L 3.52050146484375 0.43199999999999994 L 3.52800146484375 0.4425 L 3.51150146484375 0.57 L 3.38250146484375 0.5655 Q 3.37950146484375 0.6225 3.37725146484375 0.68775 Q 3.37500146484375 0.753 3.37500146484375 0.8325 Q 3.37500146484375 0.882 3.39300146484375 0.90675 Q 3.41100146484375 0.9315 3.44700146484375 0.9315 Q 3.47250146484375 0.9315 3.49650146484375 0.92475 Q 3.52050146484375 0.9179999999999999 3.52050146484375 0.9179999999999999 L 3.54450146484375 0.978 Q 3.54450146484375 0.978 3.52200146484375 1.00125 Q 3.49950146484375 1.0245 3.4672514648437502 1.0545 Q 3.43500146484375 1.0845 3.40200146484375 1.10775 Q 3.36900146484375 1.131 3.34650146484375 1.131 M 3.92697802734375 1.131 Q 3.82047802734375 1.131 3.74322802734375 1.08825 Q 3.66597802734375 1.0455 3.62397802734375 0.9652499999999999 Q 3.58197802734375 0.885 3.58197802734375 0.7755 Q 3.58197802734375 0.6525 3.62697802734375 0.56625 Q 3.67197802734375 0.48 3.75672802734375 0.4335 Q 3.84147802734375 0.387 3.95997802734375 0.387 Q 4.07097802734375 0.387 4.14747802734375 0.42825 Q 4.22397802734375 0.46950000000000003 4.26372802734375 0.54825 Q 4.3034780273437505 0.627 4.3034780273437505 0.741 Q 4.3034780273437505 0.8625 4.25847802734375 0.95025 Q 4.21347802734375 1.038 4.12947802734375 1.0845 Q 4.04547802734375 1.131 3.92697802734375 1.131 M 3.9449780273437502 0.9704999999999999 Q 3.98397802734375 0.9704999999999999 3.99897802734375 0.93975 Q 4.01397802734375 0.909 4.01397802734375 0.8265 Q 4.01397802734375 0.726 4.00722802734375 0.66975 Q 4.00047802734375 0.6134999999999999 3.98322802734375 0.5902499999999999 Q 3.96597802734375 0.567 3.93597802734375 0.567 Q 3.89697802734375 0.567 3.88197802734375 0.597 Q 3.86697802734375 0.627 3.86697802734375 0.7064999999999999 Q 3.86697802734375 0.8085 3.87372802734375 0.86625 Q 3.88047802734375 0.9239999999999999 3.8977280273437502 0.9472499999999999 Q 3.91497802734375 0.9704999999999999 3.9449780273437502 0.9704999999999999 M 4.812015380859375 0.987 Q 4.839015380859375 0.984 4.851015380859375 0.96825 Q 4.863015380859375 0.9525 4.864515380859375 0.9179999999999999 L 4.867515380859375 0.7064999999999999 Q 4.869015380859375 0.6495 4.854765380859375 0.627 Q 4.840515380859375 0.6044999999999999 4.803015380859375 0.6044999999999999 Q 4.792515380859375 0.6044999999999999 4.780515380859375 0.609 Q 4.768515380859375 0.6134999999999999 4.757265380859375 0.621 Q 4.746015380859375 0.6285000000000001 4.735515380859375 0.6359999999999999 Q 4.732515380859375 0.6779999999999999 4.729515380859375 0.72675 Q 4.726515380859375 0.7755 4.723515380859375 0.81975 Q 4.720515380859375 0.864 4.719015380859375 0.8955 Q 4.717515380859375 0.927 4.717515380859375 0.9359999999999999 Q 4.717515380859375 0.9645 4.725015380859375 0.97425 Q 4.732515380859375 0.984 4.753515380859375 0.984 Q 4.758015380859375 0.984 4.767765380859375 0.98325 Q 4.777515380859375 0.9824999999999999 4.777515380859375 0.9824999999999999 L 4.782015380859375 0.99 L 4.764015380859375 1.119 Q 4.764015380859375 1.119 4.731015380859375 1.1175 Q 4.698015380859375 1.1159999999999999 4.655265380859375 1.1145 Q 4.612515380859375 1.113 4.581015380859375 1.113 Q 4.534515380859375 1.113 4.485015380859375 1.1145 Q 4.435515380859375 1.1159999999999999 4.401765380859375 1.11825 Q 4.368015380859375 1.1205 4.368015380859375 1.1205 L 4.386015380859375 0.99 Q 4.429515380859375 0.987 4.446015380859375 0.9704999999999999 Q 4.462515380859375 0.954 4.462515380859375 0.9119999999999999 L 4.462515380859375 0.6525 Q 4.462515380859375 0.6 4.448265380859375 0.58275 Q 4.434015380859375 0.5655 4.390515380859375 0.5655 L 4.366515380859375 0.5655 L 4.359015380859375 0.5549999999999999 L 4.371015380859375 0.4425 Q 4.458015380859375 0.4305 4.539015380859375 0.41774999999999995 Q 4.620015380859375 0.405 4.672515380859375 0.396 Q 4.725015380859375 0.387 4.725015380859375 0.387 L 4.743015380859375 0.405 Q 4.743015380859375 0.405 4.735515380859375 0.44025000000000003 Q 4.728015380859375 0.4754999999999999 4.725015380859375 0.5145 L 4.735515380859375 0.5205 Q 4.758015380859375 0.498 4.7812653808593755 0.474 Q 4.804515380859375 0.44999999999999996 4.827015380859375 0.4305 Q 4.849515380859375 0.4109999999999999 4.868265380859375 0.399 Q 4.887015380859375 0.387 4.8975153808593745 0.387 Q 5.019015380859375 0.387 5.082765380859375 0.4365 Q 5.146515380859375 0.486 5.146515380859375 0.582 Q 5.146515380859375 0.606 5.141265380859375 0.6547499999999999 Q 5.136015380859375 0.7035 5.130015380859375 0.7597499999999999 Q 5.124015380859375 0.8160000000000001 5.118765380859375 0.86325 Q 5.113515380859375 0.9105 5.113515380859375 0.933 Q 5.113515380859375 0.9645 5.122515380859375 0.9764999999999999 Q 5.1315153808593745 0.9884999999999999 5.154015380859375 0.9884999999999999 Q 5.166015380859375 0.9884999999999999 5.1787653808593745 0.98775 Q 5.191515380859375 0.987 5.191515380859375 0.987 L 5.194515380859375 0.993 L 5.178015380859375 1.119 Q 5.178015380859375 1.119 5.1562653808593755 1.11825 Q 5.134515380859375 1.1175 5.103015380859375 1.1159999999999999 Q 5.071515380859375 1.1145 5.038515380859375 1.11375 Q 5.005515380859375 1.113 4.983015380859375 1.113 Q 4.963515380859375 1.113 4.932765380859375 1.11375 Q 4.902015380859375 1.1145 4.871265380859375 1.11525 Q 4.840515380859375 1.1159999999999999 4.820265380859375 1.11675 Q 4.800015380859375 1.1175 4.800015380859375 1.1175 L 4.812015380859375 0.987 M 5.218484619140625 1.0605 L 5.563484619140625 0.5445 L 5.485484619140625 0.5549999999999999 Q 5.429984619140625 0.5609999999999999 5.399984619140625 0.573 Q 5.369984619140625 0.585 5.358734619140625 0.60975 Q 5.347484619140625 0.6345 5.344484619140625 0.6825 L 5.246984619140625 0.69 Q 5.246984619140625 0.69 5.249234619140625 0.66075 Q 5.251484619140625 0.6315 5.254484619140625 0.58575 Q 5.257484619140625 0.5399999999999999 5.259734619140625 0.49124999999999996 Q 5.261984619140625 0.4425 5.263484619140625 0.405 L 5.275484619140625 0.393 L 5.473484619140625 0.405 L 5.8589846191406245 0.405 L 5.885984619140625 0.46499999999999997 Q 5.813984619140625 0.564 5.747234619140625 0.66075 Q 5.680484619140625 0.7575000000000001 5.627234619140625 0.8385 Q 5.573984619140625 0.9195 5.539484619140625 0.972 L 5.627984619140625 0.9585 Q 5.698484619140625 0.948 5.731484619140625 0.90975 Q 5.764484619140625 0.8714999999999999 5.774984619140625 0.7889999999999999 L 5.873984619140625 0.7815 Q 5.873984619140625 0.7815 5.870234619140625 0.81375 Q 5.866484619140625 0.846 5.861234619140625 0.8955 Q 5.855984619140625 0.945 5.852234619140625 0.99825 Q 5.848484619140625 1.0514999999999999 5.848484619140625 1.095 L 5.825984619140625 1.119 L 5.347484619140625 1.113 L 5.257484619140625 1.1235 L 5.218484619140625 1.0605" fill="#382d5e" fill-rule="nonzero"></path></g><g></g></g><defs><clipPath id="SvgjsClipPath150784"><path d=" M -2.7346484960267574 -0.6108242480133788 h 2.3346484960267575 v 2.3346484960267575 h -2.3346484960267575 Z"></path></clipPath><clipPath id="SvgjsClipPath150782ab8b7813-09d0-45a7-bf93-ac73aed17950"><path d=" M -2.7346484960267574 -0.6108242480133788 L -0.3999999999999999 -0.6108242480133788 L -0.3999999999999999 1.7238242480133787 L -2.7346484960267574 1.7238242480133787 Z"></path></clipPath></defs></svg>